<svg width="1024" height="1024" viewBox="0 0 1024 1024" xmlns="http://www.w3.org/2000/svg">
  <defs>
    <linearGradient id="g1" x1="0%" y1="0%" x2="100%" y2="100%">
      <stop offset="0%" stop-color="#22c55e" />
      <stop offset="100%" stop-color="#38d39f" />
    </linearGradient>
    <linearGradient id="g2" x1="0%" y1="0%" x2="0%" y2="100%">
      <stop offset="0%" stop-color="#fbbf24" />
      <stop offset="100%" stop-color="#f59e0b" />
    </linearGradient>
  </defs>
  <rect width="1024" height="1024" rx="200" fill="#0f172a" />
  <circle cx="512" cy="380" r="240" fill="url(#g1)" opacity="0.3" />
  <path d="M320 300h120l70 180 18 45 14 35 8 20h-98v-52h-70v-228z" fill="#fff" opacity="0.95" />
  <path d="M492 300h108c32 0 56 10 72 30 18 24 26 52 26 84 0 34-11 62-32 84-22 22-52 34-90 34h-94v-232zm94 90c22 0 38-6 48-18 10-12 16-27 16-45 0-18-6-33-16-45-10-12-26-18-48-18h-38v126h38zm0 118c26 0 44-8 56-24 12-16 18-35 18-58 0-24-6-43-18-58-12-16-30-24-56-24h-38v164h38z" fill="#fff" />
  <path d="M305 635h414v140c0 35-28 63-63 63H368c-35 0-63-28-63-63V635z" fill="#111827" opacity="0.9" />
  <path d="M305 635h414v24c0 12-10 22-22 22H327c-12 0-22-10-22-22v-24z" fill="url(#g2)" />
  <path d="M250 730h524v24H250z" fill="#222" opacity="0.3" />
  <text x="512" y="890" font-family="Arial, sans-serif" font-size="110" text-anchor="middle" fill="#fff" font-weight="800">RENTA</text>
  <text x="512" y="980" font-family="Arial, sans-serif" font-size="110" text-anchor="middle" fill="#22c55e" font-weight="900">PRO</text>
</svg>
